<svg width="24" height="25" viewBox="0 0 24 25" fill="none" xmlns="http://www.w3.org/2000/svg">
<path fill-rule="evenodd" clip-rule="evenodd" d="M4 12.5C4 11.9477 4.44772 11.5 5 11.5H19C19.5523 11.5 20 11.9477 20 12.5C20 13.0523 19.5523 13.5 19 13.5H5C4.44772 13.5 4 13.0523 4 12.5Z" fill="white"/>
<path fill-rule="evenodd" clip-rule="evenodd" d="M19.7071 11.7929C20.0976 12.1834 20.0976 12.8166 19.7071 13.2071L15.7071 17.2071C15.3166 17.5976 14.6834 17.5976 14.2929 17.2071C13.9024 16.8166 13.9024 16.1834 14.2929 15.7929L18.2929 11.7929C18.6834 11.4024 19.3166 11.4024 19.7071 11.7929Z" fill="white"/>
<path fill-rule="evenodd" clip-rule="evenodd" d="M14.2929 7.79289C14.6834 7.40237 15.3166 7.40237 15.7071 7.79289L19.7071 11.7929C20.0976 12.1834 20.0976 12.8166 19.7071 13.2071C19.3166 13.5976 18.6834 13.5976 18.2929 13.2071L14.2929 9.20711C13.9024 8.81658 13.9024 8.18342 14.2929 7.79289Z" fill="white"/>
</svg>
