<svg width="13" height="8" viewBox="0 0 13 8" fill="none" xmlns="http://www.w3.org/2000/svg">
<path fill-rule="evenodd" clip-rule="evenodd" d="M0.5 4C0.5 3.58579 0.835786 3.25 1.25 3.25H11.75C12.1642 3.25 12.5 3.58579 12.5 4C12.5 4.41421 12.1642 4.75 11.75 4.75H1.25C0.835786 4.75 0.5 4.41421 0.5 4Z" fill="white"/>
<path fill-rule="evenodd" clip-rule="evenodd" d="M12.2803 3.46967C12.5732 3.76256 12.5732 4.23744 12.2803 4.53033L9.28033 7.53033C8.98744 7.82322 8.51256 7.82322 8.21967 7.53033C7.92678 7.23744 7.92678 6.76256 8.21967 6.46967L11.2197 3.46967C11.5126 3.17678 11.9874 3.17678 12.2803 3.46967Z" fill="white"/>
<path fill-rule="evenodd" clip-rule="evenodd" d="M8.21967 0.46967C8.51256 0.176777 8.98744 0.176777 9.28033 0.46967L12.2803 3.46967C12.5732 3.76256 12.5732 4.23744 12.2803 4.53033C11.9874 4.82322 11.5126 4.82322 11.2197 4.53033L8.21967 1.53033C7.92678 1.23744 7.92678 0.762563 8.21967 0.46967Z" fill="white"/>
</svg>
