<svg width="15" height="15" viewBox="0 0 15 15" fill="none" xmlns="http://www.w3.org/2000/svg">
<path fill-rule="evenodd" clip-rule="evenodd" d="M5.625 5C5.625 2.92893 7.30393 1.25 9.375 1.25H11.25C11.5952 1.25 11.875 1.52982 11.875 1.875V4.375C11.875 4.72018 11.5952 5 11.25 5H9.375V5.625H11.25C11.4425 5.625 11.6242 5.71367 11.7426 5.86537C11.8611 6.01707 11.903 6.21487 11.8563 6.40158L11.2313 8.90158C11.1618 9.17981 10.9118 9.375 10.625 9.375H9.375V13.125C9.375 13.4702 9.09518 13.75 8.75 13.75H6.25C5.90482 13.75 5.625 13.4702 5.625 13.125V9.375H4.375C4.02982 9.375 3.75 9.09518 3.75 8.75V6.25C3.75 5.90482 4.02982 5.625 4.375 5.625H5.625V5ZM5 6.875V8.125H6.25C6.59518 8.125 6.875 8.40482 6.875 8.75V12.5H8.125V8.75C8.125 8.40482 8.40482 8.125 8.75 8.125H10.137L10.4495 6.875H8.75C8.40482 6.875 8.125 6.59518 8.125 6.25V5C8.125 4.30964 8.68464 3.75 9.375 3.75H10.625V2.5H9.375C7.99429 2.5 6.875 3.61929 6.875 5V6.25C6.875 6.59518 6.59518 6.875 6.25 6.875H5Z" fill="#171717"/>
</svg>
