<svg width="163" height="59" viewBox="0 0 163 59" fill="none" xmlns="http://www.w3.org/2000/svg">
<path d="M25.8127 14.3956C25.0596 14.4021 24.3067 14.4084 23.5538 14.415C23.5528 15.8011 23.5518 17.1873 23.5507 18.5736C23.5503 18.7757 23.5501 18.9778 23.5501 19.1801C23.5491 20.287 23.5483 21.3942 23.5477 22.5009C24.0884 22.4693 24.6296 22.4381 25.1705 22.4075C26.5278 22.3303 27.8853 22.2556 29.2428 22.1838C29.2419 22.64 29.2411 23.0958 29.2405 23.5518C27.9104 23.6324 26.581 23.7162 25.2519 23.8029C24.6834 23.8402 24.1148 23.8779 23.5466 23.916C23.5458 24.6671 23.5456 25.4178 23.5448 26.1687C23.5446 26.3324 23.5446 26.496 23.5442 26.6597C23.5442 26.9098 23.544 27.1602 23.5438 27.4104C23.5432 27.8921 23.543 28.3732 23.5427 28.8545C23.5415 30.7415 23.5399 32.6283 23.5385 34.5146C22.3584 34.6717 21.1789 34.8334 20 35C20 33.0806 20 31.161 20 29.2416C20 28.7397 20 28.2374 20 27.7355C20 27.3123 20 26.889 20 26.4658C20 23.8671 20 21.2684 20 18.6697C20 16.7796 20 14.8897 20 12.9997C24.0782 12.9997 28.1567 12.9997 32.2351 12.9997C32.2343 13.4481 32.2333 13.8966 32.2323 14.3451C30.0922 14.3607 27.9526 14.3778 25.8127 14.3956Z" fill="#171717"/>
<path d="M39.6513 19.8189C39.1793 19.8344 38.7074 19.8501 38.2356 19.8664C38.2335 20.6903 38.2311 21.5146 38.2286 22.3387C38.2284 22.4696 38.2282 22.6007 38.2275 22.7317C38.2259 23.4 38.2241 24.0678 38.222 24.7357C38.5453 24.7168 38.8686 24.698 39.1918 24.6796C40.2066 24.6215 41.2214 24.5654 42.2366 24.5114C42.2352 24.9337 42.2342 25.3563 42.2327 25.7788C41.2369 25.8374 40.2418 25.8984 39.2465 25.9615C38.9038 25.9832 38.5611 26.0054 38.2187 26.0276C38.2173 26.4396 38.2163 26.8517 38.2151 27.2637C38.2149 27.3636 38.2147 27.4635 38.2143 27.5635C38.2139 27.7319 38.2132 27.9003 38.2128 28.069C38.212 28.381 38.2112 28.6933 38.2102 29.0053C38.2079 29.8667 38.2056 30.7279 38.203 31.5895C38.6619 31.5473 39.1206 31.5049 39.5791 31.4643C41.1498 31.323 42.7203 31.1898 44.2918 31.0644C44.2905 31.483 44.2895 31.9015 44.288 32.3202C41.294 32.5751 38.3018 32.861 35.3125 33.1777C35.3158 31.8665 35.319 30.5552 35.3223 29.2439C35.3231 28.9269 35.324 28.6105 35.3248 28.2935C35.3254 28.0211 35.3262 27.7488 35.3269 27.4762C35.3311 25.8037 35.3352 24.1313 35.3393 22.4588C35.3424 21.1852 35.3457 19.9119 35.3487 18.6385C38.355 18.5496 41.3619 18.4693 44.3699 18.3979C44.3683 18.8222 44.367 19.2468 44.3658 19.6714C42.7941 19.7177 41.2226 19.7665 39.6513 19.8189Z" fill="#171717"/>
<path d="M49.0029 31.9619C49.0066 30.7251 49.0105 29.4878 49.0142 28.2507C49.0207 26.1451 49.0273 24.0395 49.034 21.9341C49.0375 20.7266 49.0412 19.5193 49.0449 18.3116C50.0024 18.2918 50.9599 18.2727 51.9174 18.2546C51.9051 22.3438 51.8926 26.4331 51.8804 30.5222C54.4498 30.3596 57.0208 30.2179 59.5923 30.0976C59.5911 30.4993 59.5901 30.9011 59.589 31.3034C56.0584 31.4803 52.5293 31.6995 49.0029 31.9619Z" fill="#171717"/>
<path d="M67.736 19.2175C66.2795 19.2336 65.5986 19.6488 64.8011 20.5455C64.022 21.4082 63.592 22.748 63.5877 24.5728C63.5836 26.432 64.0087 27.7488 64.7841 28.5729C65.579 29.4319 66.2969 29.8122 67.8727 29.7657C69.2531 29.7258 70.1087 29.2834 70.9273 28.4082C71.6865 27.5679 71.9218 26.2876 71.9238 24.4223C71.9261 22.6072 71.7139 21.3496 70.9385 20.499C70.1623 19.6323 69.2502 19.2012 67.736 19.2175ZM67.734 30.9702C65.4585 31.0432 64.0611 30.4905 62.6246 29.3495C61.1501 28.1773 60.4369 26.588 60.4414 24.5938C60.4469 22.6686 61.1878 21.0496 62.686 19.8466C64.1448 18.6613 65.5249 18.0537 67.7383 18.0337C69.9516 18.0147 71.3481 18.5792 72.8235 19.6924C74.3361 20.8569 75.093 22.4256 75.0914 24.3684C75.0888 26.2613 74.3696 27.8251 72.9094 29.042C71.4881 30.2595 70.068 30.8978 67.734 30.9702Z" fill="#171717"/>
<path d="M90.9952 30.8574C87.9375 27.3182 84.883 23.8498 81.8331 20.396C81.8331 22.746 81.8336 25.0963 81.8336 27.4464C81.8336 28.449 81.8336 29.4513 81.8336 30.4536C81.3863 30.4536 80.9385 30.4536 80.4912 30.4549C80.4912 29.4523 80.4917 28.4498 80.4917 27.4474C80.4923 25.3699 80.4923 23.2925 80.4928 21.2151C80.4928 20.1346 80.4933 19.0542 80.4933 17.9737C81.4188 17.9729 82.3438 17.9733 83.2698 17.9743C85.6979 20.7676 88.1287 23.5715 90.5626 26.4143C90.56 24.438 90.5574 22.4615 90.5548 20.4856C90.5537 19.6568 90.5527 18.8282 90.5516 17.9998C91.0371 18.0025 91.5227 18.0055 92.0082 18.009C92.0098 18.8839 92.0108 19.7587 92.0113 20.6336C92.0166 24.0495 92.0218 27.465 92.0265 30.8809C91.6829 30.8727 91.3388 30.8646 90.9952 30.8574Z" fill="#171717"/>
<path d="M97.702 31.0544C97.6999 29.8653 97.6968 28.6762 97.6947 27.4867C97.6905 25.482 97.6858 23.4773 97.6821 21.4724C97.68 20.3343 97.6774 19.1959 97.6748 18.0576C98.6328 18.0676 99.5907 18.0785 100.549 18.0902C100.551 19.2359 100.554 20.3814 100.557 21.5271C100.562 23.5446 100.566 25.5623 100.571 27.5801C100.574 28.7769 100.577 29.9736 100.58 31.1709C99.6206 31.1289 98.6616 31.0903 97.702 31.0544Z" fill="#171717"/>
<path d="M116.986 30.3527C116.483 30.8943 115.806 31.2924 114.971 31.5524C114.118 31.8108 113.147 31.8985 112.062 31.822C110.779 31.7323 109.672 31.449 108.758 30.991C107.824 30.5321 107.162 29.9564 106.752 29.2573C106.343 28.5756 106.107 27.6801 106.182 26.6417C106.213 26.2205 106.258 19.2991 106.255 18.1701C107.206 18.1854 108.157 18.2013 109.108 18.2182C109.112 19.3574 109.115 20.497 109.118 21.6364C109.122 22.9452 109.126 24.254 109.13 25.5629C109.132 26.2291 109.134 26.8077 109.155 27.2994C109.175 27.7735 109.195 28.1253 109.255 28.3739C109.373 28.8709 109.646 29.289 110.191 29.6903C110.735 30.0916 111.513 30.3339 112.522 30.4002C113.3 30.4512 114.016 30.3761 114.637 30.1497C115.296 29.9271 115.761 29.6356 116.032 29.2763C116.341 28.9015 116.554 28.5187 116.61 28.1436C116.686 27.6978 116.8 27.001 116.798 26.026C116.793 24.5699 116.788 23.1139 116.784 21.6582C116.781 20.5628 116.777 19.4682 116.774 18.373C117.22 18.3832 117.667 18.3934 118.113 18.404C118.116 19.5595 118.12 20.7154 118.124 21.8713C118.128 23.3054 118.132 24.7394 118.137 26.1737C118.14 27.2994 118.026 28.1271 117.931 28.6645C117.817 29.2916 117.43 29.8618 116.986 30.3527Z" fill="#171717"/>
<path d="M142.997 35C141.37 34.7702 139.743 34.5499 138.114 34.3383C137.06 33.0178 134.289 29.7426 133.904 29.3152C132.096 27.3107 130.285 25.3727 128.473 23.4917C128.143 23.7804 127.813 24.0678 127.484 24.3537C127.487 25.4865 127.49 26.6192 127.493 27.7518C127.497 29.532 127.501 31.3119 127.506 33.0918C126.323 32.9674 125.139 32.8475 123.956 32.7329C123.951 30.9846 123.946 29.2365 123.941 27.4885C123.932 24.3628 123.923 21.2374 123.915 18.1119C123.91 16.4078 123.905 14.704 123.9 12.9997C125.085 12.9997 126.27 12.9997 127.455 12.9997C127.46 14.7347 127.464 16.4696 127.469 18.2049C127.472 19.6342 127.476 21.0636 127.479 22.493C129.228 21.0067 136.303 14.6224 138.037 12.9997C138.689 12.9997 139.341 12.9997 139.993 12.9997C138.561 14.4099 132.08 20.4981 131.082 21.3593C133.464 23.8891 135.844 26.5223 138.218 29.2795C138.383 29.4677 141.626 33.3202 142.997 35Z" fill="#171717"/>
<path d="M46.1741 45.3709C45.7537 44.9461 45.5439 44.392 45.5439 43.7205C45.5439 43.2775 45.6428 42.8584 45.8338 42.4642C46.0258 42.0702 46.2975 41.7684 46.6498 41.5716C46.9955 41.3803 47.3724 41.2882 47.7863 41.2882C48.1259 41.2882 48.4348 41.3559 48.7192 41.4976C48.9848 41.6332 49.1888 41.7811 49.3617 41.984L49.3801 42.1135L49.09 42.3965C48.9296 42.1687 48.8614 42.0951 48.7813 42.0335C48.5153 41.8239 48.2125 41.7256 47.8788 41.7256C47.4712 41.7256 47.1561 41.8857 46.9154 42.212C46.6805 42.5444 46.5506 43.0308 46.5506 43.6899C46.5506 44.3119 46.6866 44.7673 46.9461 45.0752C47.212 45.3893 47.5332 45.5371 47.9223 45.5371C48.1259 45.5371 48.3424 45.4882 48.5709 45.3831C48.7377 45.303 48.8798 45.1802 49.09 44.8662L49.4298 45.2047C48.9416 45.7588 48.4226 45.999 47.7925 45.999C47.1439 45.999 46.6001 45.7894 46.1741 45.3709Z" fill="#171717"/>
<path d="M59.0566 45.999V41.2882H59.9712V45.5681H62.4238V45.999H59.0566Z" fill="#171717"/>
<path d="M72.0381 45.999V41.2882H72.9527V45.999H72.0381Z" fill="#171717"/>
<path d="M86.2987 45.999L83.3892 42.1814V45.8885H82.9629V44.7799V42.4826V41.2882H83.8465L86.1625 44.3731V42.1997V41.2882H86.6261V42.2487V45.999H86.2987Z" fill="#171717"/>
<path d="M96.6426 45.999V41.2882H97.5571V45.999H96.6426Z" fill="#171717"/>
<path d="M108.043 45.3709C107.623 44.9461 107.413 44.392 107.413 43.7205C107.413 43.2775 107.512 42.8584 107.703 42.4642C107.895 42.0702 108.166 41.7684 108.519 41.5716C108.864 41.3803 109.242 41.2882 109.655 41.2882C109.995 41.2882 110.304 41.3559 110.588 41.4976C110.854 41.6332 111.058 41.7811 111.231 41.984L111.249 42.1135L110.959 42.3965C110.799 42.1687 110.731 42.0951 110.65 42.0335C110.384 41.8239 110.081 41.7256 109.748 41.7256C109.34 41.7256 109.025 41.8857 108.784 42.212C108.55 42.5444 108.42 43.0308 108.42 43.6899C108.42 44.3119 108.555 44.7673 108.815 45.0752C109.081 45.3893 109.402 45.5371 109.791 45.5371C109.995 45.5371 110.212 45.4882 110.44 45.3831C110.606 45.303 110.749 45.1802 110.959 44.8662L111.299 45.2047C110.811 45.7588 110.292 45.999 109.662 45.999C109.013 45.999 108.469 45.7894 108.043 45.3709Z" fill="#171717"/>
</svg>
