<svg width="15" height="15" viewBox="0 0 15 15" fill="none" xmlns="http://www.w3.org/2000/svg">
<path fill-rule="evenodd" clip-rule="evenodd" d="M1.875 5C1.875 3.27411 3.27411 1.875 5 1.875H10C11.7259 1.875 13.125 3.27411 13.125 5V10C13.125 11.7259 11.7259 13.125 10 13.125H5C3.27411 13.125 1.875 11.7259 1.875 10V5ZM5 3.125C3.96447 3.125 3.125 3.96447 3.125 5V10C3.125 11.0355 3.96447 11.875 5 11.875H10C11.0355 11.875 11.875 11.0355 11.875 10V5C11.875 3.96447 11.0355 3.125 10 3.125H5Z" fill="#171717"/>
<path fill-rule="evenodd" clip-rule="evenodd" d="M7.5 6.25C6.80964 6.25 6.25 6.80964 6.25 7.5C6.25 8.19036 6.80964 8.75 7.5 8.75C8.19036 8.75 8.75 8.19036 8.75 7.5C8.75 6.80964 8.19036 6.25 7.5 6.25ZM5 7.5C5 6.11929 6.11929 5 7.5 5C8.88071 5 10 6.11929 10 7.5C10 8.88071 8.88071 10 7.5 10C6.11929 10 5 8.88071 5 7.5Z" fill="#171717"/>
<path fill-rule="evenodd" clip-rule="evenodd" d="M10.3125 4.0625C10.6577 4.0625 10.9375 4.34232 10.9375 4.6875V4.68812C10.9375 5.0333 10.6577 5.31312 10.3125 5.31312C9.96732 5.31312 9.6875 5.0333 9.6875 4.68812V4.6875C9.6875 4.34232 9.96732 4.0625 10.3125 4.0625Z" fill="#171717"/>
</svg>
