<svg width="25" height="25" viewBox="0 0 25 25" fill="none" xmlns="http://www.w3.org/2000/svg">
<path fill-rule="evenodd" clip-rule="evenodd" d="M3.125 6.24967C3.125 5.67438 3.59137 5.20801 4.16667 5.20801H20.8333C21.4086 5.20801 21.875 5.67438 21.875 6.24967C21.875 6.82497 21.4086 7.29134 20.8333 7.29134H4.16667C3.59137 7.29134 3.125 6.82497 3.125 6.24967Z" fill="#171717"/>
<path fill-rule="evenodd" clip-rule="evenodd" d="M3.125 12.4997C3.125 11.9244 3.59137 11.458 4.16667 11.458H20.8333C21.4086 11.458 21.875 11.9244 21.875 12.4997C21.875 13.075 21.4086 13.5413 20.8333 13.5413H4.16667C3.59137 13.5413 3.125 13.075 3.125 12.4997Z" fill="#171717"/>
<path fill-rule="evenodd" clip-rule="evenodd" d="M3.125 18.7497C3.125 18.1744 3.59137 17.708 4.16667 17.708H20.8333C21.4086 17.708 21.875 18.1744 21.875 18.7497C21.875 19.325 21.4086 19.7913 20.8333 19.7913H4.16667C3.59137 19.7913 3.125 19.325 3.125 18.7497Z" fill="#171717"/>
</svg>
