<svg width="17" height="17" viewBox="0 0 17 17" fill="none" xmlns="http://www.w3.org/2000/svg">
<path fill-rule="evenodd" clip-rule="evenodd" d="M7.19489 2.97962C4.95049 3.51027 3.19646 5.37943 2.88334 7.7535C2.51164 10.5718 4.28553 13.2293 7.03083 13.967C9.26061 14.5662 11.5707 13.7482 12.9442 12.0133C10.7461 12.2149 8.55079 11.1915 7.31483 9.24926C6.07899 7.30719 6.08163 4.88531 7.19489 2.97962ZM8.58945 1.4168H8.77819C9.06942 1.4168 9.33098 1.59505 9.43747 1.86611C9.54397 2.13717 9.4737 2.44579 9.26036 2.64403C7.63303 4.15614 7.31742 6.61457 8.51002 8.4887C9.70262 10.3628 12.0633 11.1182 14.1224 10.2845C14.3871 10.1773 14.6903 10.2396 14.8914 10.4425C15.0924 10.6454 15.1519 10.9491 15.0423 11.2129C13.6786 14.4942 10.0948 16.2572 6.6632 15.3351C3.23158 14.413 1.01421 11.0911 1.47884 7.56826C1.94347 4.04541 4.94629 1.41199 8.49965 1.41113C8.52977 1.41113 8.55989 1.41304 8.58945 1.4168Z" fill="#171717"/>
</svg>
